<svg xmlns="http://www.w3.org/2000/svg" viewBox="0 0 465.22 464.73"><defs><style>.cls-1{fill:#691c56;}</style></defs><title>Asset 1</title><g id="Layer_2" data-name="Layer 2"><g id="Layer_1-2" data-name="Layer 1"><path class="cls-1" d="M435,116C418,85.09,345.23,0,232.34,0q-59,0-114.61,30Q62.24,60,31.11,115.7-.06,171.61,0,232.83q0,60.35,30.4,115.48t85.8,85.8q55.32,30.67,116.14,30.62c90.22,0,145.42-52.31,166.1-65.85v59.47h66.78v-236C463.9,185.34,453.73,149.89,435,116Zm-60.85,34.3q22.42,40,22.43,83.93,0,43-21.93,82.12a158.48,158.48,0,0,1-61.34,61.29q-39.33,22.17-82.78,22.2-43,0-82.61-22.2A156,156,0,0,1,86.62,316.1q-21.68-39.33-21.71-81.9,0-43.93,22.21-83.93t62-61.06q39.74-21,81.4-21,42,0,81.68,21T374.14,150.27Z"/></g></g></svg>